<svg width="586" height="239" viewBox="0 0 586 239" fill="none" xmlns="http://www.w3.org/2000/svg">
<g clip-path="url(#clip0_1_2)">
<rect width="586" height="239" fill="white"/>
<rect x="9.42856" y="45.1653" width="546.433" height="195.474" rx="14" transform="rotate(-4.63597 9.42856 45.1653)" fill="#56ACE5"/>
<rect x="3" y="32" width="580" height="189" rx="11" fill="#56ACE5" stroke="white" stroke-width="6"/>
<path d="M0 88C21.5913 88 39.0945 105.503 39.0947 127.095C39.0947 148.686 21.5915 166.19 0 166.19V88Z" fill="white"/>
<path d="M583.423 165.198L582.414 165.186C561.289 164.651 544.328 147.358 544.328 126.104C544.328 104.512 561.831 87.0088 583.423 87.0088V165.198Z" fill="white"/>
<path d="M85.384 106.864C105.104 106.864 119.112 121.416 119.112 141.136C119.112 161.672 104.288 176.224 83.616 176.224C62.944 176.224 48.12 161.672 48.12 141.544V80.888H61.992V117.336C67.296 110.944 75.592 106.864 85.384 106.864ZM83.48 164.12C95.856 164.12 104.832 154.736 104.832 141.544C104.832 128.488 95.856 118.968 83.48 118.968C70.968 118.968 61.992 128.488 61.992 141.544C61.992 154.736 70.968 164.12 83.48 164.12ZM164.072 106.864C184.744 106.864 199.704 121.416 199.704 141.544C199.704 161.672 184.744 176.224 164.072 176.224C143.4 176.224 128.304 161.672 128.304 141.544C128.304 121.416 143.4 106.864 164.072 106.864ZM163.936 118.968C151.56 118.968 142.584 128.488 142.584 141.544C142.584 154.736 151.56 164.12 163.936 164.12C176.448 164.12 185.424 154.736 185.424 141.544C185.424 128.488 176.448 118.968 163.936 118.968ZM244.689 106.864C265.361 106.864 280.321 121.416 280.321 141.544C280.321 161.672 265.361 176.224 244.689 176.224C224.017 176.224 208.921 161.672 208.921 141.544C208.921 121.416 224.017 106.864 244.689 106.864ZM244.553 118.968C232.177 118.968 223.201 128.488 223.201 141.544C223.201 154.736 232.177 164.12 244.553 164.12C257.065 164.12 266.041 154.736 266.041 141.544C266.041 128.488 257.065 118.968 244.553 118.968ZM352.234 108.088L321.362 140.048L352.234 175H335.778L307.354 142.496V175H293.482V80.888H307.354V138.008L335.778 108.088H352.234ZM362.658 175V135.832C362.658 118.56 375.034 106.864 393.122 106.864C411.346 106.864 423.858 118.56 423.858 135.832V175H409.85V135.832C409.85 125.36 403.322 118.424 393.258 118.424C383.194 118.424 376.666 125.36 376.666 135.832V175H362.658ZM456.016 90C456.016 94.76 452.344 98.16 447.176 98.16C441.872 98.16 438.336 94.76 438.336 90C438.336 85.104 441.872 81.84 447.176 81.84C452.344 81.84 456.016 85.104 456.016 90ZM440.24 108.088H454.112V175H440.24V108.088ZM537.828 175H521.78L501.516 148.888L481.388 175H465.204L491.588 141.408L465.612 108.088H481.66L501.516 133.52L521.372 108.088H537.556L511.58 141.408L537.828 175Z" fill="white"/>
<rect x="48" y="35" width="14" height="46" fill="white"/>
<rect x="62" y="112" width="3" height="29" fill="#56ACE5"/>
</g>
<defs>
<clipPath id="clip0_1_2">
<rect width="586" height="239" fill="white"/>
</clipPath>
</defs>
</svg>
